<svg width="202" height="27" viewBox="0 0 202 27" fill="none" xmlns="http://www.w3.org/2000/svg">
<g clip-path="url(#clip0_6078_131829)">
<path d="M7.04949 0.477161C7.20037 0.628379 7.32006 0.807953 7.40172 1.00562C7.48338 1.20328 7.52542 1.41515 7.52542 1.62913C7.52542 1.8431 7.48338 2.05498 7.40172 2.25264C7.32006 2.4503 7.20037 2.62988 7.04949 2.7811C4.6145 5.22476 3.24657 8.53883 3.24657 11.9944C3.24657 15.45 4.6145 18.764 7.04949 21.2077C7.20448 21.3579 7.3281 21.5376 7.41315 21.7362C7.49819 21.9349 7.54296 22.1485 7.54483 22.3647C7.5467 22.5809 7.50564 22.7953 7.42405 22.9954C7.34246 23.1955 7.22197 23.3773 7.06961 23.5302C6.91725 23.6831 6.73607 23.804 6.53664 23.8858C6.33721 23.9677 6.12354 24.0089 5.90807 24.007C5.69261 24.0051 5.47968 23.9602 5.2817 23.8749C5.08372 23.7896 4.90466 23.6655 4.75497 23.51C-1.58499 17.1502 -1.58499 6.837 4.75497 0.477161C5.05928 0.171917 5.47195 0.000439441 5.90223 0.000439441C6.33252 0.000439441 6.74519 0.171917 7.04949 0.477161ZM27.7099 0.477161C34.0483 6.83863 34.0483 17.1502 27.7099 23.51C27.4057 23.8155 26.9929 23.9872 26.5624 23.9874C26.132 23.9876 25.7191 23.8161 25.4146 23.5108C25.1101 23.2055 24.939 22.7913 24.9388 22.3594C24.9387 21.9275 25.1095 21.5132 25.4138 21.2077C27.8488 18.764 29.2167 15.45 29.2167 11.9944C29.2167 8.53883 27.8488 5.22476 25.4138 2.7811C25.1093 2.47558 24.9382 2.0612 24.9382 1.62913C24.9382 1.19706 25.1093 0.782682 25.4138 0.477161C25.7183 0.17164 26.1313 8.51716e-09 26.5619 0C26.9925 -8.51716e-09 27.4055 0.17164 27.7099 0.477161ZM11.8641 5.15667C12.1683 5.46201 12.3392 5.87608 12.3392 6.30783C12.3392 6.73957 12.1683 7.15364 11.8641 7.45898C11.2734 8.05167 10.8047 8.75531 10.485 9.52973C10.1653 10.3042 10.0008 11.1342 10.0008 11.9724C10.0008 12.8106 10.1653 13.6407 10.485 14.4151C10.8047 15.1895 11.2734 15.8932 11.8641 16.4858C12.0148 16.6371 12.1342 16.8167 12.2157 17.0143C12.2972 17.2119 12.3391 17.4237 12.3391 17.6376C12.339 17.8514 12.2969 18.0632 12.2153 18.2607C12.1337 18.4583 12.0141 18.6378 11.8633 18.789C11.7125 18.9401 11.5336 19.06 11.3366 19.1418C11.1397 19.2236 10.9286 19.2656 10.7155 19.2656C10.5023 19.2655 10.2913 19.2233 10.0944 19.1414C9.8975 19.0595 9.71861 18.9394 9.56795 18.7882C7.76646 16.9805 6.75439 14.5288 6.75439 11.9724C6.75439 9.41603 7.76646 6.96434 9.56795 5.15667C9.71866 5.00529 9.89763 4.88519 10.0946 4.80325C10.2916 4.72131 10.5028 4.67914 10.716 4.67914C10.9293 4.67914 11.1404 4.72131 11.3374 4.80325C11.5344 4.88519 11.7134 5.00529 11.8641 5.15667ZM23.155 5.15667C24.9565 6.96434 25.9685 9.41603 25.9685 11.9724C25.9685 14.5288 24.9565 16.9805 23.155 18.7882C22.8489 19.0847 22.439 19.2489 22.0136 19.2452C21.5881 19.2414 21.1811 19.0702 20.8802 18.7683C20.5794 18.4664 20.4087 18.0581 20.405 17.6311C20.4013 17.2042 20.5649 16.7929 20.8604 16.4858C21.4512 15.8932 21.9198 15.1895 22.2395 14.4151C22.5592 13.6407 22.7238 12.8106 22.7238 11.9724C22.7238 11.1342 22.5592 10.3042 22.2395 9.52973C21.9198 8.75531 21.4512 8.05167 20.8604 7.45898C20.5649 7.15189 20.4013 6.7406 20.405 6.31369C20.4087 5.88677 20.5794 5.47839 20.8802 5.17651C21.1811 4.87462 21.5881 4.70338 22.0136 4.69967C22.439 4.69596 22.8489 4.86008 23.155 5.15667ZM16.3623 9.66685C17.0078 9.66685 17.6269 9.92416 18.0834 10.3822C18.5399 10.8402 18.7964 11.4614 18.7964 12.1092C18.7964 12.7569 18.5399 13.3781 18.0834 13.8362C17.6269 14.2942 17.0078 14.5515 16.3623 14.5515C15.7167 14.5515 15.0976 14.2942 14.6411 13.8362C14.1846 13.3781 13.9282 12.7569 13.9282 12.1092C13.9282 11.4614 14.1846 10.8402 14.6411 10.3822C15.0976 9.92416 15.7167 9.66685 16.3623 9.66685Z" fill="#8D6500"/>
</g>
<path d="M43.7023 3.7H49.1503C51.0863 3.7 52.5583 4.06 53.5663 4.78C54.5743 5.484 55.0783 6.524 55.0783 7.9C55.0783 8.7 54.8943 9.388 54.5263 9.964C54.1583 10.54 53.5823 11.028 52.7983 11.428V11.5C53.8223 11.884 54.5583 12.396 55.0063 13.036C55.4703 13.676 55.7023 14.516 55.7023 15.556C55.7023 17.156 55.2303 18.38 54.2863 19.228C53.3583 20.076 51.9983 20.5 50.2063 20.5H43.7023V3.7ZM49.4623 10.396C50.1343 10.396 50.6543 10.212 51.0223 9.844C51.4063 9.46 51.5983 8.932 51.5983 8.26C51.5983 7.604 51.3823 7.124 50.9503 6.82C50.5343 6.516 49.8863 6.364 49.0063 6.364H47.1583V10.396H49.4623ZM49.9423 17.836C50.6943 17.836 51.2703 17.62 51.6703 17.188C52.0863 16.756 52.2943 16.14 52.2943 15.34C52.2943 14.492 52.0463 13.876 51.5503 13.492C51.0543 13.108 50.2543 12.916 49.1503 12.916H47.1583V17.836H49.9423ZM61.449 20.74C60.665 20.74 59.961 20.58 59.337 20.26C58.713 19.924 58.225 19.468 57.873 18.892C57.521 18.3 57.345 17.644 57.345 16.924C57.345 15.692 57.833 14.748 58.809 14.092C59.785 13.436 61.177 13.108 62.985 13.108H64.857V12.604C64.857 11.964 64.665 11.476 64.281 11.14C63.913 10.788 63.385 10.612 62.697 10.612C61.977 10.612 61.289 10.74 60.633 10.996C59.977 11.252 59.441 11.604 59.025 12.052L57.681 10.276C58.337 9.652 59.113 9.164 60.009 8.812C60.905 8.444 61.833 8.26 62.793 8.26C64.393 8.26 65.649 8.636 66.561 9.388C67.473 10.14 67.929 11.18 67.929 12.508V17.98C67.929 18.348 67.953 18.78 68.001 19.276C68.065 19.772 68.137 20.18 68.217 20.5H65.505C65.409 20.292 65.337 20.092 65.289 19.9C65.241 19.692 65.201 19.412 65.169 19.06H65.121C64.209 20.18 62.985 20.74 61.449 20.74ZM62.193 18.436C62.961 18.436 63.593 18.244 64.089 17.86C64.601 17.46 64.857 16.956 64.857 16.348V15.148H62.889C62.073 15.148 61.441 15.3 60.993 15.604C60.561 15.908 60.345 16.348 60.345 16.924C60.345 17.404 60.505 17.78 60.825 18.052C61.161 18.308 61.617 18.436 62.193 18.436ZM75.9521 20.74C74.0961 20.74 72.6321 20.188 71.5601 19.084C70.5041 17.964 69.9761 16.436 69.9761 14.5C69.9761 12.548 70.5041 11.02 71.5601 9.916C72.6321 8.812 74.0961 8.26 75.9521 8.26C77.0721 8.26 78.0481 8.468 78.8801 8.884C79.7121 9.3 80.3521 9.892 80.8001 10.66L78.9521 12.268C78.6481 11.74 78.2401 11.332 77.7281 11.044C77.2321 10.756 76.6881 10.612 76.0961 10.612C75.1361 10.612 74.3841 10.956 73.8401 11.644C73.2961 12.332 73.0241 13.284 73.0241 14.5C73.0241 15.716 73.2961 16.668 73.8401 17.356C74.3841 18.044 75.1361 18.388 76.0961 18.388C76.6881 18.388 77.2321 18.244 77.7281 17.956C78.2241 17.652 78.6321 17.244 78.9521 16.732L80.8001 18.34C80.3521 19.108 79.7121 19.7 78.8801 20.116C78.0481 20.532 77.0721 20.74 75.9521 20.74ZM90.4046 20.5L86.8526 14.908L85.4126 16.324V20.5H82.3406V2.692H85.4126V12.652L89.6366 8.5H93.4046L88.9646 12.844L93.8606 20.5H90.4046ZM99.0015 20.74C97.9615 20.74 97.0415 20.532 96.2415 20.116C95.4575 19.7 94.9055 19.148 94.5855 18.46L96.4815 17.14C96.7695 17.54 97.1375 17.86 97.5855 18.1C98.0335 18.34 98.4895 18.46 98.9535 18.46C99.4975 18.46 99.9455 18.324 100.298 18.052C100.65 17.764 100.826 17.412 100.826 16.996C100.826 16.66 100.698 16.396 100.442 16.204C100.186 15.996 99.6415 15.732 98.8095 15.412C97.3535 14.852 96.3295 14.284 95.7375 13.708C95.1455 13.132 94.8495 12.42 94.8495 11.572C94.8495 10.58 95.2495 9.78 96.0495 9.172C96.8655 8.564 97.9455 8.26 99.2895 8.26C100.186 8.26 100.994 8.436 101.714 8.788C102.434 9.124 103.018 9.612 103.466 10.252L101.69 11.572C101.13 10.884 100.37 10.54 99.4095 10.54C98.9295 10.54 98.5535 10.628 98.2815 10.804C98.0255 10.964 97.8975 11.204 97.8975 11.524C97.8975 11.748 97.9535 11.932 98.0655 12.076C98.1775 12.22 98.3935 12.372 98.7135 12.532C99.0335 12.692 99.5455 12.908 100.25 13.18C101.194 13.548 101.922 13.908 102.434 14.26C102.962 14.596 103.33 14.972 103.538 15.388C103.762 15.788 103.874 16.276 103.874 16.852C103.874 17.62 103.666 18.3 103.25 18.892C102.85 19.468 102.282 19.924 101.546 20.26C100.81 20.58 99.9615 20.74 99.0015 20.74ZM110.915 20.74C109.683 20.74 108.723 20.404 108.035 19.732C107.347 19.06 107.003 18.116 107.003 16.9V10.78H104.819V8.5H107.003V5.404L109.979 4.54H110.075V8.5H113.555V10.78H110.075V16.444C110.075 17.132 110.235 17.636 110.555 17.956C110.875 18.276 111.363 18.436 112.019 18.436C112.643 18.436 113.227 18.34 113.771 18.148L113.915 20.236C113.195 20.572 112.195 20.74 110.915 20.74ZM119.433 20.74C118.649 20.74 117.945 20.58 117.321 20.26C116.697 19.924 116.209 19.468 115.857 18.892C115.505 18.3 115.329 17.644 115.329 16.924C115.329 15.692 115.817 14.748 116.793 14.092C117.769 13.436 119.161 13.108 120.969 13.108H122.841V12.604C122.841 11.964 122.649 11.476 122.265 11.14C121.897 10.788 121.369 10.612 120.681 10.612C119.961 10.612 119.273 10.74 118.617 10.996C117.961 11.252 117.425 11.604 117.009 12.052L115.665 10.276C116.321 9.652 117.097 9.164 117.993 8.812C118.889 8.444 119.817 8.26 120.777 8.26C122.377 8.26 123.633 8.636 124.545 9.388C125.457 10.14 125.913 11.18 125.913 12.508V17.98C125.913 18.348 125.937 18.78 125.985 19.276C126.049 19.772 126.121 20.18 126.201 20.5H123.489C123.393 20.292 123.321 20.092 123.273 19.9C123.225 19.692 123.185 19.412 123.153 19.06H123.105C122.193 20.18 120.969 20.74 119.433 20.74ZM120.177 18.436C120.945 18.436 121.577 18.244 122.073 17.86C122.585 17.46 122.841 16.956 122.841 16.348V15.148H120.873C120.057 15.148 119.425 15.3 118.977 15.604C118.545 15.908 118.329 16.348 118.329 16.924C118.329 17.404 118.489 17.78 118.809 18.052C119.145 18.308 119.601 18.436 120.177 18.436ZM139.457 8.5V20.02C139.457 22.052 138.953 23.58 137.945 24.604C136.937 25.644 135.441 26.164 133.457 26.164C132.529 26.164 131.649 26.052 130.817 25.828C130.001 25.604 129.273 25.284 128.633 24.868L129.665 22.78C130.241 23.068 130.849 23.292 131.489 23.452C132.129 23.628 132.737 23.716 133.312 23.716C134.401 23.716 135.209 23.372 135.737 22.684C136.265 22.012 136.529 20.988 136.529 19.612V19.228C136.209 19.66 135.769 19.996 135.209 20.236C134.649 20.46 133.985 20.572 133.217 20.572C131.553 20.572 130.257 20.028 129.329 18.94C128.417 17.852 127.961 16.316 127.961 14.332C127.961 12.412 128.401 10.924 129.281 9.868C130.161 8.796 131.401 8.26 133.001 8.26C134.665 8.26 135.873 8.844 136.625 10.012H136.673L136.913 8.5H139.457ZM136.409 13.756C136.409 12.716 136.185 11.924 135.737 11.38C135.289 10.82 134.641 10.54 133.793 10.54C132.897 10.54 132.209 10.876 131.729 11.548C131.249 12.204 131.009 13.156 131.009 14.404C131.009 15.652 131.241 16.596 131.705 17.236C132.185 17.876 132.881 18.196 133.793 18.196C134.641 18.196 135.289 17.948 135.737 17.452C136.185 16.94 136.409 16.22 136.409 15.292V13.756ZM152.889 15.628H144.537C144.793 17.324 145.777 18.172 147.489 18.172C148.193 18.172 148.801 18.052 149.313 17.812C149.841 17.572 150.353 17.172 150.849 16.612L152.505 18.196C152.041 18.964 151.337 19.58 150.393 20.044C149.465 20.508 148.441 20.74 147.321 20.74C145.449 20.74 143.993 20.196 142.953 19.108C141.913 18.004 141.393 16.484 141.393 14.548C141.393 12.596 141.913 11.06 142.953 9.94C144.009 8.82 145.457 8.26 147.297 8.26C149.057 8.26 150.425 8.812 151.401 9.916C152.393 11.02 152.889 12.556 152.889 14.524V15.628ZM149.889 13.396C149.889 12.58 149.649 11.94 149.169 11.476C148.705 10.996 148.057 10.756 147.225 10.756C146.473 10.756 145.865 11.004 145.401 11.5C144.937 11.98 144.641 12.66 144.513 13.54H149.889V13.396Z" fill="#211F26"/>
<path d="M155.265 3.7H160.857C162.841 3.7 164.345 4.156 165.369 5.068C166.393 5.964 166.905 7.292 166.905 9.052C166.905 10.908 166.377 12.324 165.321 13.3C164.281 14.26 162.753 14.74 160.737 14.74H158.721V20.5H155.265V3.7ZM161.025 12.004C161.857 12.004 162.481 11.764 162.897 11.284C163.329 10.788 163.545 10.076 163.545 9.148C163.545 8.268 163.313 7.604 162.849 7.156C162.401 6.692 161.729 6.46 160.833 6.46H158.721V12.004H161.025ZM171.887 20.74C171.103 20.74 170.399 20.58 169.775 20.26C169.151 19.924 168.663 19.468 168.311 18.892C167.959 18.3 167.783 17.644 167.783 16.924C167.783 15.692 168.271 14.748 169.247 14.092C170.223 13.436 171.615 13.108 173.423 13.108H175.295V12.604C175.295 11.964 175.103 11.476 174.719 11.14C174.351 10.788 173.823 10.612 173.135 10.612C172.415 10.612 171.727 10.74 171.071 10.996C170.415 11.252 169.879 11.604 169.463 12.052L168.119 10.276C168.775 9.652 169.551 9.164 170.447 8.812C171.343 8.444 172.271 8.26 173.23 8.26C174.831 8.26 176.087 8.636 176.999 9.388C177.911 10.14 178.367 11.18 178.367 12.508V17.98C178.367 18.348 178.391 18.78 178.439 19.276C178.503 19.772 178.575 20.18 178.655 20.5H175.943C175.847 20.292 175.775 20.092 175.727 19.9C175.679 19.692 175.639 19.412 175.607 19.06H175.559C174.647 20.18 173.423 20.74 171.887 20.74ZM172.631 18.436C173.399 18.436 174.031 18.244 174.527 17.86C175.039 17.46 175.295 16.956 175.295 16.348V15.148H173.327C172.511 15.148 171.879 15.3 171.431 15.604C170.999 15.908 170.783 16.348 170.783 16.924C170.783 17.404 170.943 17.78 171.263 18.052C171.599 18.308 172.055 18.436 172.631 18.436ZM184.83 20.74C183.79 20.74 182.87 20.532 182.07 20.116C181.286 19.7 180.734 19.148 180.414 18.46L182.31 17.14C182.598 17.54 182.966 17.86 183.414 18.1C183.862 18.34 184.318 18.46 184.782 18.46C185.326 18.46 185.774 18.324 186.126 18.052C186.478 17.764 186.654 17.412 186.654 16.996C186.654 16.66 186.526 16.396 186.27 16.204C186.014 15.996 185.47 15.732 184.638 15.412C183.182 14.852 182.158 14.284 181.566 13.708C180.974 13.132 180.678 12.42 180.678 11.572C180.678 10.58 181.078 9.78 181.878 9.172C182.694 8.564 183.774 8.26 185.118 8.26C186.014 8.26 186.822 8.436 187.542 8.788C188.262 9.124 188.846 9.612 189.294 10.252L187.518 11.572C186.958 10.884 186.198 10.54 185.238 10.54C184.758 10.54 184.382 10.628 184.11 10.804C183.854 10.964 183.726 11.204 183.726 11.524C183.726 11.748 183.782 11.932 183.894 12.076C184.006 12.22 184.222 12.372 184.542 12.532C184.862 12.692 185.374 12.908 186.078 13.18C187.022 13.548 187.75 13.908 188.262 14.26C188.79 14.596 189.158 14.972 189.366 15.388C189.59 15.788 189.702 16.276 189.702 16.852C189.702 17.62 189.494 18.3 189.078 18.892C188.678 19.468 188.11 19.924 187.374 20.26C186.638 20.58 185.79 20.74 184.83 20.74ZM195.423 20.74C194.383 20.74 193.463 20.532 192.663 20.116C191.879 19.7 191.327 19.148 191.007 18.46L192.903 17.14C193.191 17.54 193.559 17.86 194.007 18.1C194.455 18.34 194.911 18.46 195.375 18.46C195.919 18.46 196.367 18.324 196.719 18.052C197.071 17.764 197.247 17.412 197.247 16.996C197.247 16.66 197.119 16.396 196.863 16.204C196.607 15.996 196.063 15.732 195.231 15.412C193.775 14.852 192.751 14.284 192.159 13.708C191.567 13.132 191.271 12.42 191.271 11.572C191.271 10.58 191.671 9.78 192.471 9.172C193.287 8.564 194.367 8.26 195.711 8.26C196.607 8.26 197.415 8.436 198.135 8.788C198.855 9.124 199.439 9.612 199.887 10.252L198.111 11.572C197.551 10.884 196.791 10.54 195.831 10.54C195.351 10.54 194.975 10.628 194.703 10.804C194.447 10.964 194.319 11.204 194.319 11.524C194.319 11.748 194.375 11.932 194.487 12.076C194.599 12.22 194.815 12.372 195.135 12.532C195.455 12.692 195.967 12.908 196.671 13.18C197.615 13.548 198.343 13.908 198.855 14.26C199.383 14.596 199.751 14.972 199.959 15.388C200.183 15.788 200.295 16.276 200.295 16.852C200.295 17.62 200.087 18.3 199.671 18.892C199.271 19.468 198.703 19.924 197.967 20.26C197.231 20.58 196.383 20.74 195.423 20.74Z" fill="#8D6500"/>
<defs>
<clipPath id="clip0_6078_131829">
<rect width="32.4706" height="24" fill="white"/>
</clipPath>
</defs>
</svg>
